<svg xmlns="http://www.w3.org/2000/svg" viewBox="0 0 64 64" fill="none">
  <rect width="64" height="64" rx="14" fill="#4a6cf7"/>
  <path d="M18 22c0-3.3 2.7-6 6-6h8c3.3 0 6 2.7 6 6v1c0 .6-.4 1-1 1H20c-.6 0-1 .4-1 1v4c0 .6.4 1 1 1h17c.6 0 1 .4 1 1v2c0 3.3-2.7 6-6 6h-8c-3.3 0-6-2.7-6-6v-1c0-.6.4-1 1-1h17c.6 0 1-.4 1-1v-4c0-.6-.4-1-1-1H19c-.6 0-1-.4-1-1v-2z" fill="white"/>
  <!-- Three connection dots to hint at IoT/connectivity -->
  <circle cx="16" cy="50" r="2.5" fill="white" opacity="0.5"/>
  <circle cx="32" cy="50" r="2.5" fill="white" opacity="0.7"/>
  <circle cx="48" cy="50" r="2.5" fill="white" opacity="0.5"/>
  <line x1="18.5" y1="50" x2="29.5" y2="50" stroke="white" stroke-width="1" opacity="0.4"/>
  <line x1="34.5" y1="50" x2="45.5" y2="50" stroke="white" stroke-width="1" opacity="0.4"/>
</svg>
