<svg width="148" height="44" viewBox="0 0 148 44" fill="none" xmlns="http://www.w3.org/2000/svg">
<path d="M133.851 39.9493V23.3201H144V25.083H135.852V30.6579H143.523V32.4209H135.852V38.1863H144V39.9493H133.851Z" fill="white"/>
<path d="M118.612 39.9493V23.3201H125.235C126.204 23.3201 127.03 23.5027 127.713 23.868C128.412 24.2333 128.944 24.7654 129.309 25.4642C129.69 26.1631 129.881 27.0207 129.881 28.0372C129.881 29.2443 129.595 30.2449 129.023 31.0391C128.451 31.8332 127.625 32.3573 126.545 32.6114L130.357 39.9493H128.094L124.496 32.802H120.613V39.9493H118.612ZM120.613 31.0867H125.235C125.759 31.0867 126.204 30.9994 126.569 30.8246C126.95 30.6341 127.236 30.364 127.427 30.0146C127.633 29.6493 127.737 29.2125 127.737 28.7043V27.4655C127.737 26.9572 127.633 26.5284 127.427 26.179C127.236 25.8137 126.95 25.5436 126.569 25.3689C126.204 25.1783 125.759 25.083 125.235 25.083H120.613V31.0867Z" fill="white"/>
<path d="M101.682 39.9493L107.495 23.3201H110.044L115.857 39.9493H113.761L112.093 35.0415H105.375L103.707 39.9493H101.682ZM105.851 33.2785H111.593L108.781 25.1783H108.662L105.851 33.2785Z" fill="white"/>
<path d="M93.295 40.2351C91.8179 40.2351 90.6505 39.981 89.7928 39.4728C88.9352 38.9645 88.3157 38.1863 87.9345 37.138C87.5692 36.0739 87.3866 34.7397 87.3866 33.1356V23.3201H89.3878V33.6121C89.3878 34.6603 89.5149 35.5497 89.769 36.2804C90.0231 36.9951 90.4361 37.5351 91.0079 37.9004C91.5955 38.2657 92.3817 38.4483 93.3664 38.4483C94.3512 38.4483 95.1294 38.2657 95.7012 37.9004C96.2888 37.5351 96.7097 36.9951 96.9639 36.2804C97.218 35.5497 97.3451 34.6603 97.3451 33.6121V23.3201H99.3463V33.1356C99.3463 34.7397 99.1477 36.0739 98.7507 37.138C98.3695 38.1863 97.7342 38.9645 96.8447 39.4728C95.9553 39.981 94.7721 40.2351 93.295 40.2351Z" fill="white"/>
<path d="M78.0713 43.8565C77.4201 43.8565 76.9198 43.6659 76.5704 43.2847C76.2368 42.9194 76.07 42.4588 76.07 41.9029V40.2114C74.1482 40.0367 72.6235 39.2187 71.4958 37.7575C70.3682 36.2804 69.8043 34.2395 69.8043 31.6347C69.8043 29.7764 70.0902 28.212 70.662 26.9414C71.2496 25.6549 72.0676 24.686 73.1159 24.0349C74.18 23.3678 75.4268 23.0342 76.8562 23.0342C78.2857 23.0342 79.5245 23.3678 80.5728 24.0349C81.6369 24.686 82.4549 25.6549 83.0267 26.9414C83.6143 28.212 83.9082 29.7764 83.9082 31.6347C83.9082 34.176 83.3761 36.1692 82.312 37.6146C81.2478 39.0599 79.8025 39.9096 77.976 40.1637V42.1888H80.5251V43.8565H78.0713ZM76.8562 38.4484C77.8251 38.4484 78.6748 38.226 79.4054 37.7813C80.136 37.3207 80.7078 36.6854 81.1208 35.8754C81.5496 35.0654 81.764 34.1124 81.764 33.0165V30.2529C81.764 29.157 81.5496 28.2041 81.1208 27.394C80.7078 26.5681 80.136 25.9328 79.4054 25.4881C78.6748 25.0434 77.8251 24.821 76.8562 24.821C75.9033 24.821 75.0536 25.0434 74.3071 25.4881C73.5765 25.9328 72.9967 26.5681 72.5679 27.394C72.155 28.2041 71.9485 29.157 71.9485 30.2529V33.0165C71.9485 34.1124 72.155 35.0654 72.5679 35.8754C72.9967 36.6854 73.5765 37.3207 74.3071 37.7813C75.0536 38.226 75.9033 38.4484 76.8562 38.4484Z" fill="white"/>
<path d="M61.4646 40.2352C60.1305 40.2352 58.979 39.9811 58.0101 39.4728C57.0572 38.9487 56.2472 38.234 55.5801 37.3287L57.0572 36.0898C57.6448 36.8681 58.296 37.4637 59.0107 37.8766C59.7255 38.2737 60.5672 38.4722 61.5361 38.4722C62.7273 38.4722 63.6326 38.1863 64.252 37.6146C64.8873 37.0428 65.205 36.2804 65.205 35.3275C65.205 34.8033 65.1018 34.3586 64.8953 33.9933C64.6888 33.628 64.3553 33.3262 63.8947 33.088C63.45 32.8339 62.8623 32.6274 62.1317 32.4686L60.7737 32.1589C59.7731 31.9206 58.9234 31.6109 58.2245 31.2297C57.5257 30.8485 56.9936 30.3562 56.6283 29.7526C56.263 29.1491 56.0804 28.4264 56.0804 27.5846C56.0804 26.5999 56.3107 25.774 56.7713 25.1069C57.2319 24.424 57.8751 23.9078 58.701 23.5584C59.5428 23.209 60.5037 23.0342 61.5837 23.0342C62.8385 23.0342 63.9106 23.2645 64.8 23.7251C65.7053 24.1857 66.4677 24.8608 67.0871 25.7502L65.5862 26.8461C65.1415 26.2108 64.5856 25.7105 63.9185 25.3452C63.2673 24.9799 62.4573 24.7972 61.4884 24.7972C60.4243 24.7972 59.5825 25.0275 58.9631 25.4881C58.3596 25.9487 58.0578 26.6237 58.0578 27.5132C58.0578 28.0373 58.169 28.4741 58.3913 28.8235C58.6296 29.1729 58.979 29.4667 59.4396 29.705C59.9002 29.9273 60.4799 30.1179 61.1787 30.2768L62.5367 30.5865C63.6167 30.8247 64.4982 31.1503 65.1812 31.5633C65.8641 31.9762 66.3644 32.4844 66.6821 33.088C67.0156 33.6915 67.1824 34.4063 67.1824 35.2322C67.1824 36.2486 66.9521 37.1301 66.4915 37.8766C66.0309 38.6231 65.3718 39.2028 64.5141 39.6158C63.6723 40.0287 62.6558 40.2352 61.4646 40.2352Z" fill="white"/>
<path d="M34.2349 39.9493L40.0479 23.3201H42.5971L48.4102 39.9493H46.3137L44.646 35.0415H37.9276L36.2599 39.9493H34.2349ZM38.4041 33.2785H44.1457L41.3344 25.1783H41.2153L38.4041 33.2785Z" fill="white"/>
<path d="M19.0581 39.9493V23.3201H21.369L27.4442 33.4691L29.4454 37.1618H29.5169V23.3201H31.4704V39.9493H29.1595L23.0844 29.8002L21.0832 26.1075H21.0117V39.9493H19.0581Z" fill="white"/>
<path d="M9.88454 40.2352C8.55039 40.2352 7.3989 39.9811 6.43005 39.4728C5.47709 38.9487 4.66707 38.234 4 37.3287L5.47709 36.0898C6.06475 36.8681 6.71594 37.4637 7.43066 37.8766C8.14538 38.2737 8.98717 38.4722 9.95601 38.4722C11.1472 38.4722 12.0525 38.1863 12.672 37.6146C13.3073 37.0428 13.6249 36.2804 13.6249 35.3275C13.6249 34.8033 13.5217 34.3586 13.3152 33.9933C13.1087 33.628 12.7752 33.3262 12.3146 33.088C11.8699 32.8339 11.2822 32.6274 10.5516 32.4686L9.19364 32.1589C8.19303 31.9206 7.34331 31.6109 6.64447 31.2297C5.94563 30.8485 5.41356 30.3562 5.04826 29.7526C4.68296 29.1491 4.5003 28.4264 4.5003 27.5846C4.5003 26.5999 4.7306 25.774 5.1912 25.1069C5.6518 24.424 6.29505 23.9078 7.12095 23.5584C7.96273 23.209 8.92364 23.0342 10.0037 23.0342C11.2584 23.0342 12.3305 23.2645 13.2199 23.7251C14.1252 24.1857 14.8876 24.8608 15.507 25.7502L14.0061 26.8461C13.5614 26.2108 13.0055 25.7105 12.3384 25.3452C11.6872 24.9799 10.8772 24.7972 9.90836 24.7972C8.84422 24.7972 8.00244 25.0275 7.38302 25.4881C6.77947 25.9487 6.4777 26.6237 6.4777 27.5132C6.4777 28.0373 6.58888 28.4741 6.81124 28.8235C7.04948 29.1729 7.3989 29.4667 7.8595 29.705C8.32009 29.9273 8.89981 30.1179 9.59865 30.2768L10.9566 30.5865C12.0366 30.8247 12.9181 31.1503 13.6011 31.5633C14.284 31.9762 14.7844 32.4844 15.102 33.088C15.4355 33.6915 15.6023 34.4063 15.6023 35.2322C15.6023 36.2486 15.372 37.1301 14.9114 37.8766C14.4508 38.6231 13.7917 39.2028 12.934 39.6158C12.0922 40.0287 11.0757 40.2352 9.88454 40.2352Z" fill="white"/>
<path fill-rule="evenodd" clip-rule="evenodd" d="M19 3H130V21H118V15H31V21H19V3Z" fill="white"/>
</svg>
